<?xml version="1.0" encoding="utf-8"?>
<!-- Generator: Adobe Illustrator 24.0.3, SVG Export Plug-In . SVG Version: 6.00 Build 0)  -->
<svg version="1.1" id="Livello_1" xmlns="http://www.w3.org/2000/svg" xmlns:xlink="http://www.w3.org/1999/xlink" x="0px" y="0px"
	 viewBox="0 0 221.6 120.9" style="enable-background:new 0 0 221.6 120.9;" xml:space="preserve">
<style type="text/css">
	.st0{fill:#F2F2F2;}
</style>
<path class="st0" d="M7.8,104.8h14.6c0,0,3.7,16.3,19.8,16.1c0,0,15.8,0.3,19.1-16.1l96.3,0.3c0,0,3.2,16.3,21,15.8
	c0,0,14.1-0.8,17.6-15.3l17.1-0.2c0,0,11.7-2.7,7.4-14.3L220,77.7c0,0-1-6.4-4.9-7.2c0,0-11.9-11.2-25-17.3l-17.8-25.7
	c0,0-12.9-15.4-20.8-15.6c0,0-0.7-11.6-6.7-11.9h-6.7c0,0-3.4,0-5.2,1.9L17.6,1.5c0,0-6.7-0.8-7.6,3.9v5c0,0-8.1,3.9-8.1,10.4v42
	L0,70.7V92C0.1,92-0.4,101.4,7.8,104.8z M146,10.9h-8.9c-0.5-5.9,1.7-6.2,1.7-6.2h4.2C145.5,4.7,146,10.9,146,10.9z M123,26.3h24.7
	c9.2,0,15.1,9.1,15.1,9.1l13.4,21.3H123V26.3z M33.6,47.6l0.9-0.5c2.6-1.5,5.2-3,7.8-4.5l1.9-1.1c-3.2-1.9-6.4-3.7-9.7-5.6l-0.9-0.5
	l0.5-0.9c0.9-1.6,1.8-3.1,2.7-4.7c1.1-1.9,2.2-3.7,3.2-5.6l0.5-0.9l0.9,0.5c2,1.1,3.9,2.2,5.9,3.4c1.3,0.7,2.6,1.5,3.9,2.2V17.6
	l1-0.3H65v12.2c2.2-1.2,4.4-2.5,6.6-3.8l4-2.3l0.5,0.9c2,3.4,4,6.8,5.9,10.3l0.5,0.9L81.6,36c-1.8,1-3.6,2-5.3,3.1
	c-1.4,0.8-2.9,1.7-4.3,2.5c1.7,1,3.3,1.9,5,2.9c1.6,0.9,3.1,1.8,4.7,2.7l0.9,0.5l-0.5,0.9c-1.4,2.4-2.7,4.8-4.1,7.1l-2.3,4l-0.9-0.5
	C72.9,58.1,71,57,69.1,56c-1.3-0.8-2.7-1.6-4.1-2.4v12.2H51.1V53.6c-1.3,0.8-2.6,1.5-4,2.3c-1.9,1.1-3.8,2.2-5.8,3.3l-0.9,0.5
	l-0.5-0.9C38,55.4,36,52,34,48.6L33.6,47.6z"/>
</svg>
