<?xml version="1.0" encoding="utf-8"?>
<!-- Generator: Adobe Illustrator 24.0.3, SVG Export Plug-In . SVG Version: 6.00 Build 0)  -->
<svg version="1.1" id="Livello_1" xmlns="http://www.w3.org/2000/svg" xmlns:xlink="http://www.w3.org/1999/xlink" x="0px" y="0px"
	 viewBox="0 0 91.5 91.5" style="enable-background:new 0 0 91.5 91.5;" xml:space="preserve">
<style type="text/css">
	.st0{fill:#F2F2F2;}
</style>
<path class="st0" d="M79.2,0H12.3C5.5,0,0,5.5,0,12.3v66.9C0,86,5.5,91.5,12.3,91.5h33l0.1-32.7h-8.5c-1.1,0-2-0.9-2-2l0-10.5
	c0-1.1,0.9-2,2-2h8.5V34.1c0-11.8,7.2-18.3,17.8-18.3h8.6c1.1,0,2,0.9,2,2v8.9c0,1.1-0.9,2-2,2h-5.3c-5.7,0-6.9,2.7-6.9,6.7v8.8
	h12.6c1.2,0,2.1,1,2,2.2L72.9,57c-0.1,1-1,1.8-2,1.8H59.6l-0.1,32.7h19.6c6.8,0,12.3-5.5,12.3-12.3V12.3C91.5,5.5,86,0,79.2,0z"/>
</svg>
