<?xml version="1.0" encoding="utf-8"?>
<!-- Generator: Adobe Illustrator 24.0.3, SVG Export Plug-In . SVG Version: 6.00 Build 0)  -->
<svg version="1.1" id="Livello_1" xmlns="http://www.w3.org/2000/svg" xmlns:xlink="http://www.w3.org/1999/xlink" x="0px" y="0px"
	 viewBox="0 0 192.9 176.8" style="enable-background:new 0 0 192.9 176.8;" xml:space="preserve">
<style type="text/css">
	.st0{fill:#F2F2F2;}
</style>
<path class="st0" d="M157.8,46.8V2.7h-25v25.1L96.4,0L0,73.6l15.2,19.9l10.4-7.9v91.2h141.7V85.6l10.4,7.9l15.2-19.9L157.8,46.8z
	 M134.6,118.7c-3.2,5.7-6.5,11.3-9.8,17c-6.2-3.5-12.4-7.2-18.6-10.7v21.5H86.6v-21.4c-6.1,3.4-12.3,7.2-18.6,10.6
	c-3.2-5.7-6.5-11.3-9.8-16.9c6.1-3.6,12.4-7.2,18.6-10.8c-6.2-3.6-12.3-7.2-18.6-10.7c3.2-5.7,6.6-11.3,9.8-17
	c6.3,3.5,12.4,7.2,18.6,10.7V69.7c0-0.1,0-0.1,0.1-0.2h19.6v21.4c6.2-3.4,12.4-7.1,18.6-10.7c3.3,5.6,6.6,11.3,9.8,17
	c-6.2,3.5-12.3,7.1-18.5,10.7C122.2,111.6,128.4,115.1,134.6,118.7z"/>
</svg>
