<?xml version="1.0" encoding="utf-8"?>
<!-- Generator: Adobe Illustrator 24.0.3, SVG Export Plug-In . SVG Version: 6.00 Build 0)  -->
<svg version="1.1" id="Livello_1" xmlns="http://www.w3.org/2000/svg" xmlns:xlink="http://www.w3.org/1999/xlink" x="0px" y="0px"
	 viewBox="0 0 93.4 93.4" style="enable-background:new 0 0 93.4 93.4;" xml:space="preserve">
<style type="text/css">
	.st0{fill:#F2F2F2;}
</style>
<g>
	<path class="st0" d="M65.5,0H27.8C12.5,0,0,12.5,0,27.8v37.7c0,15.3,12.5,27.8,27.8,27.8h37.7c15.3,0,27.8-12.5,27.8-27.8V27.8
		C93.4,12.5,80.9,0,65.5,0z M84,65.5C84,75.7,75.7,84,65.5,84H27.8C17.6,84,9.4,75.7,9.4,65.5V27.8c0-10.2,8.2-18.4,18.4-18.4h37.7
		C75.7,9.4,84,17.6,84,27.8V65.5L84,65.5z"/>
	<path class="st0" d="M46.7,22.5c-13.3,0-24.1,10.8-24.1,24.1s10.8,24.1,24.1,24.1S70.8,60,70.8,46.7C70.8,33.4,60,22.5,46.7,22.5z
		 M46.7,61.4c-8.1,0-14.8-6.6-14.8-14.8s6.6-14.8,14.8-14.8s14.8,6.6,14.8,14.8C61.4,54.8,54.8,61.4,46.7,61.4z"/>
	<circle class="st0" cx="70.9" cy="22.7" r="5.8"/>
</g>
</svg>
