<?xml version="1.0" encoding="utf-8"?>
<!-- Generator: Adobe Illustrator 24.0.3, SVG Export Plug-In . SVG Version: 6.00 Build 0)  -->
<svg version="1.1" id="Livello_1" xmlns="http://www.w3.org/2000/svg" xmlns:xlink="http://www.w3.org/1999/xlink" x="0px" y="0px"
	 viewBox="0 0 91.8 91.8" style="enable-background:new 0 0 91.8 91.8;" xml:space="preserve">
<style type="text/css">
	.st0{fill:#F2F2F2;}
</style>
<path class="st0" d="M83.5,0H8.3C3.7,0,0,3.7,0,8.3v75.2c0,4.6,3.7,8.3,8.3,8.3h75.2c4.6,0,8.3-3.7,8.3-8.3V8.3
	C91.8,3.7,88.1,0,83.5,0z M28.4,79.2c0,1.3-1.1,2.4-2.4,2.4H15.7c-1.3,0-2.4-1.1-2.4-2.4V36.1c0-1.3,1.1-2.4,2.4-2.4H26
	c1.3,0,2.4,1.1,2.4,2.4L28.4,79.2L28.4,79.2z M20.8,29.6c-5.4,0-9.8-4.4-9.8-9.8s4.4-9.8,9.8-9.8s9.8,4.4,9.8,9.8
	S26.2,29.6,20.8,29.6z M82.1,79.4c0,1.2-1,2.2-2.2,2.2h-11c-1.2,0-2.2-1-2.2-2.2V59.2c0-3,0.9-13.2-7.9-13.2c-6.8,0-8.2,7-8.5,10.1
	v23.3c0,1.2-1,2.2-2.2,2.2H37.4c-1.2,0-2.2-1-2.2-2.2V35.9c0-1.2,1-2.2,2.2-2.2h10.7c1.2,0,2.2,1,2.2,2.2v3.8
	c2.5-3.8,6.3-6.7,14.2-6.7c17.7,0,17.6,16.5,17.6,25.6V79.4L82.1,79.4z"/>
</svg>
