<?xml version="1.0" encoding="utf-8"?>
<!-- Generator: Adobe Illustrator 24.0.3, SVG Export Plug-In . SVG Version: 6.00 Build 0)  -->
<svg version="1.1" id="Livello_1" xmlns="http://www.w3.org/2000/svg" xmlns:xlink="http://www.w3.org/1999/xlink" x="0px" y="0px"
	 viewBox="0 0 37.6 29.5" style="enable-background:new 0 0 37.6 29.5;" xml:space="preserve">
<style type="text/css">
	.st0{fill:#F41616;}
</style>
<g>
	<g>
		<g>
			<path class="st0" d="M3.6,9.1c0.5,0.3,1.9,1.3,4.3,3c2.4,1.6,4.2,2.9,5.5,3.8c0.1,0.1,0.4,0.3,0.9,0.6s0.8,0.6,1.1,0.8
				c0.3,0.2,0.7,0.4,1.1,0.7s0.8,0.4,1.2,0.6c0.4,0.1,0.7,0.2,1,0.2l0,0l0,0c0.3,0,0.7-0.1,1-0.2c0.4-0.1,0.8-0.3,1.2-0.6
				c0.4-0.2,0.8-0.5,1.1-0.7s0.7-0.5,1.1-0.8s0.8-0.5,0.9-0.6c1.3-0.9,4.5-3.2,9.8-6.8c1-0.7,1.9-1.6,2.6-2.6c0.7-1,1-2.1,1-3.2
				c0-0.9-0.3-1.7-1-2.4s-1.5-1-2.4-1H3.4C2.3,0,1.5,0.4,0.9,1.1S0,2.7,0,3.8c0,0.9,0.4,1.8,1.1,2.9C1.9,7.7,2.8,8.5,3.6,9.1z"/>
			<path class="st0" d="M35.5,11.3c-4.6,3.1-8.1,5.5-10.4,7.2c-0.8,0.6-1.4,1-1.9,1.4s-1.2,0.7-2,1s-1.6,0.5-2.3,0.5l0,0l0,0
				c-0.7,0-1.5-0.2-2.3-0.5c-0.8-0.3-1.5-0.7-2-1s-1.1-0.8-1.9-1.4c-1.9-1.4-5.4-3.8-10.4-7.2c-1-0.5-1.7-1.1-2.3-1.8v16.6
				c0,0.9,0.3,1.7,1,2.4c0.7,0.7,1.5,1,2.4,1h30.8c0.9,0,1.7-0.3,2.4-1s1-1.5,1-2.4V9.5C37,10.2,36.3,10.8,35.5,11.3z"/>
		</g>
	</g>
</g>
</svg>
