<?xml version="1.0" encoding="utf-8"?>
<!-- Generator: Adobe Illustrator 24.0.3, SVG Export Plug-In . SVG Version: 6.00 Build 0)  -->
<svg version="1.1" id="Livello_1" xmlns="http://www.w3.org/2000/svg" xmlns:xlink="http://www.w3.org/1999/xlink" x="0px" y="0px"
	 viewBox="0 0 196 171.7" style="enable-background:new 0 0 196 171.7;" xml:space="preserve">
<style type="text/css">
	.st0{fill:#F2F2F2;}
</style>
<g>
	<path class="st0" d="M0.2,27.1c-2.6,5.8,20.3,21.8,51.2,35.8c2,0.9,4.2,1.9,6.6,2.9L87.6,168l8.3,3.7l-3.5-91.8
		c23.5,9.3,49.6,19,65.6,23.6l4.7,38.5l2.3,1.1l3.1-37.2c2.9,0.4,4.7,0.4,5-0.4c0.3-0.7-0.8-2.1-3-3.9L196,74.8l-2.4-1.1l-32.1,21.8
		c-14-9-38.4-22.4-60.9-34l71.5-57.7L163.8,0L67.3,44.9c-2.4-1.1-4.6-2.1-6.5-3C30,28.1,2.8,21.4,0.2,27.1z"/>
</g>
</svg>
