<?xml version="1.0" encoding="utf-8"?>
<!-- Generator: Adobe Illustrator 24.0.3, SVG Export Plug-In . SVG Version: 6.00 Build 0)  -->
<svg version="1.1" id="Livello_1" xmlns="http://www.w3.org/2000/svg" xmlns:xlink="http://www.w3.org/1999/xlink" x="0px" y="0px"
	 viewBox="0 0 485.4 474.2" style="enable-background:new 0 0 485.4 474.2;" xml:space="preserve">
<style type="text/css">
	.st0{clip-path:url(#SVGID_2_);fill-rule:evenodd;clip-rule:evenodd;}
</style>
<g id="PRIMO_BLOCCO_DI_TESTO_1_">
	<g>
		<defs>
			<rect id="SVGID_1_" x="-1437.8" y="-68.6" width="1923.7" height="542.4"/>
		</defs>
		<clipPath id="SVGID_2_">
			<use xlink:href="#SVGID_1_"  style="overflow:visible;"/>
		</clipPath>
		<path class="st0" d="M538.4,492.1c-10.2,0.7-26.4-2.2-35.6-11.6c-6.4-7.4-5.7-16.1,5.8-10.8c13.6,5,38.3,11.1,42-10.7
			c1.5-9.7-4.6-15.6-11.6-7.3c-10.1,8.8-21.1,9.4-38.7,0.2c-8.1-6.6-4.9-9.5,4.1-9c11.8,0.8,32.3-0.6,39.2-17.8
			c3.9-9.5,0-17.2-11.6-8.5c-9.5,9.7-23.5,11.3-40.8,9.7c-9.5-1-8.5-12.6-0.3-11.9c6.3-0.5,16.3,0.1,21.1-3.2c5.6-3.8,11-10,14-19.9
			c1.1-12.7-5.3-14.7-14.7-7.2c-6.2,6.8-7.3,12.9-21.3,15.7c-25.4,4.9-51.1,3.3-69.4-11.3c-12-9.6-9.5-18.7-3.4-22.3
			c16.5-9.8,49.7,6.2,72.3,10.6c6.9,0.9,9.7-1.8,10.4-4.9c0.5-6.8,0.9-12.3,1-19.4c0,0,31.6-21.9,50.9-31.8l-10.5,22
			c-9.5,2.8-13.3,13.8-7.4,19.7c-1.8,9.8,3.4,14.1,10.4,16.1c-2.4-3.9-5.9-8.7-1.8-13.8c9.3-3.8,13-15.3,7.9-20.5l11.6-26.7
			l30.3-8.4c7.4,7.4,16.8,2.7,22.1-6.6c5.6-1.3,11.5,0.2,16.6,3c-3.6-7.9-8-11.4-14.2-10.9c-5.4-9.3-22.9-6.1-26.2,6.7l-21.9,5.9
			L592,283c7.7,2.1,17.9-7.6,15.7-15.7c1.8-3.2,3.5-5.7,11.9-7c-7.4-4.3-12.8-3.8-17.3,0.6c-9.4-2.6-21.7,9.7-16.7,18.2l-24.1,25.5
			l4.2-25.2c8.7-2.2,12.8-13.6,8.5-21c-0.4-4.8,1.1-8.7,8.1-12.3c-7.6-2.1-12.9,0.3-16.6,10.6c-11.2,1.5-13.7,15.8-7.6,19.3
			l-6.3,32.9C533.4,318.9,501,338,501,338c-0.2-6.3,0-12.4-0.3-18.7c-0.8-3-4.7-3.6-7.5-1.7c-27.7,18.2-50.1,22.1-81.6,6.6
			c-13.2-6.5-8.9-16.7-0.4-13.1c11.8,5,24.7,10.3,42.1,7.1c6-1.1,14.6-13.7,2.4-13.4c-11.8,1.1-16.9,1.6-33.1-8.2
			c-6.6-6.6-2.8-16.2,7.2-13.7c16.9,8.9,22.9,14.1,38.5,15.2c11.8,0.8,23.2-2.1,26.7-5.8c6.3-6.5,5.8-19.8-7.7-16.3
			c-17.6,7.5-29,5.3-37.4,0.6c-13.4-9.4-16.8-17.1-4.3-18.4c20.9,1.3,60.2,3.4,79.6,3.2c19.3-2.6,32.2-14.8,33.6-33.4
			c-0.9-12.3-10-17.4-17.4-6.9c-18.5,21.9-43.8,27.2-87.8,16.9c-9.4-2.8-19.1-10.7-5.3-11.4c19.7,3,41.5,0.4,57-6.8
			c15.5-7.3,22.6-19,22.7-26.2c0-8.8-12.2-18.7-17.2-8.4c-4,8.5-12.3,17.8-25,23.5c-12.8,5.6-30.1,7.4-53.3,4.4
			c-10.9-3.9-16-11.3-5.2-14.5c30.7-2.5,63.5-12.5,67.6-30.3c3-13.1-9.7-26.1-19.1-15.1c-17.8,23.4-30.1,26.6-67.3,28.9
			c-7.9,1.1-16.1-7.7-3.5-9.4c27.3-5.9,54.2-24.4,57.5-38.9c3-13-13.5-27.2-21.6-8.3c-4.2,17.4-16.3,29.1-57.3,36
			c-11,1-13.1-10-5.3-12.2c30.2-8.3,62.9-31.6,47.9-61.1c-5.7-11.3-15.8-11.2-17.4,2.2c-1.2,31.8-27.5,43-45.6,45.8
			c-4.8,1.2-19.2-2.2-7.9-10.2c30.7-19.3,50.5-49.1,37.3-71.3c-3.1-8.4-18.5-13.4-19.1,4.3c-0.1,23.9-12.5,37-28.6,53
			c-9.9,6.4-18.9-2.4-13.4-10.6c12.9-12.4,19.9-30.4,24.2-46c4.2-15.4,4.4-31.4-4-44.8c-8.2-11.3-28-12.3-23.3,3.7
			c6.8,23.5,2.5,56.3-15.5,79.5c-2.9-0.7-10.2-2.6-12.2,2c-3.7,8.4-7.8,18.8-11.7,29.7c-8.4,23.6-11.4,34,3.6,45.2
			c15.7,11.7,13.8,30.9,2.7,37.3c-9.7,5.6-20.7,2.9-31.3-10.4c-8.4-10.6-10.4-31.6-5.6-48.4c3.1-10.9,11.4-23.5,21.3-39
			c6.2-9.2,7.1-16.1,4.4-19.7c0,0-1.4,9.1-10.4,17c-4.3,3.7-8.7,4.6-11.5,3.8c2.3-3.5,8.3-8.1,13.1-12.9
			c6.3-6.4,19.6-22.6,14.6-35.4c-4.7-7.1-9.6-4.3-9.4,3.1c0.2,8,2.3,13.2-4.1,22.3c-3.9,5.6-7.7,11.2-15.2,15.9
			c-0.6-7.5,0.6-17.1,6-21c1.8-1.3,5.2-1.9,9.4-1c-5.5-7.4-14.5-13-28.7,7.3c-4.6-5.2-17,3-23.1,9.3c-3.4,3.6-8.5,12.8-11.2,20.5
			c-5.7,10.7-11.9,20.7-20.8,30.9c10.3-0.8,11.6-1.6,21.1-3.1c-5.2,11.5-5.3,24.4-4,31.6c0,0,9.5-10,13.1-11.4
			c-7.2,13.2-10,19.6-9.9,30.5c2.2-1.6,5.6-3.9,7.3-4.6c1.7-0.8,2.2,0.4,2,2.2c-0.5,3.9,0.9,23.6,0.8,28.7
			c-5.2,0.1-24.9-1.3-28.7-0.8c-1.8,0.2-3-0.3-2.2-2s3-5.1,4.6-7.3c-10.9-0.1-17.3,2.7-30.5,9.9c1.4-3.6,11.4-13.1,11.4-13.1
			c-7.2-1.3-20.1-1.3-31.6,4c1.5-9.5,2.3-10.9,3.1-21.1c-10.2,8.9-20.2,15.1-30.9,20.8c-7.7,2.7-16.9,7.8-20.5,11.2
			c-6.3,6.1-14.4,18.5-9.3,23.1c-20.3,14.2-14.8,23.2-7.3,28.7c-0.9-4.2-0.3-7.6,1-9.4c3.9-5.4,13.5-6.7,21-6
			c-4.6,7.6-10.3,11.3-15.9,15.2c-9.1,6.4-14.4,4.3-22.3,4.1c-7.4-0.2-10.2,4.8-3.1,9.4c12.8,5,29-8.3,35.4-14.6
			c4.8-4.8,9.4-10.8,12.9-13.1c0.8,2.8-0.1,7.2-3.8,11.5c-7.8,9-17,10.4-17,10.4c3.6,2.7,10.5,1.8,19.7-4.4
			c15.5-9.8,28.1-18.2,39-21.3c16.8-4.7,37.8-2.8,48.4,5.6c13.3,10.6,16,21.6,10.4,31.3c-6.3,11.1-25.6,13-37.3-2.7
			c-11.2-15.1-21.5-12.1-45.2-3.6c-11,3.9-21.3,8-29.7,11.7c-4.6,2-2.7,9.3-2,12.2c-23.2,18-56,22.3-79.5,15.5
			c-16-4.7-15.1,15.1-3.7,23.3c13.5,8.3,29.5,8.1,44.8,4c15.6-4.4,33.6-11.3,46-24.2c8.2-5.5,17.1,3.6,10.6,13.4
			c-15.9,16.1-29.1,28.4-53,28.6c-17.7,0.6-12.6,15.9-4.3,19.1c22.2,13.2,52-6.6,71.3-37.3c8-11.3,11.5,3.1,10.2,7.9
			c-2.8,18.2-14,44.4-45.8,45.6c-13.4,1.6-13.6,11.7-2.2,17.4c29.6,15,52.9-17.7,61.1-47.9c2.1-7.8,13.2-5.7,12.2,5.3
			c-6.8,41-18.6,53.1-36,57.3c-18.9,8.1-4.8,24.6,8.3,21.6c14.5-3.3,33-30.2,38.9-57.5c1.7-12.6,10.6-4.4,9.4,3.5
			c-2.3,37.2-5.5,49.5-28.9,67.3c-11,9.4,2,22.1,15.1,19.1c17.8-4.1,27.8-36.9,30.3-67.6c3.2-10.8,10.6-5.7,14.5,5.2
			c3,23.2,1.2,40.5-4.4,53.3c-5.6,12.7-15,21-23.5,25c-10.3,4.9-0.4,17.2,8.4,17.2c7.2-0.1,18.9-7.2,26.2-22.7
			c7.2-15.5,9.8-37.3,6.8-57c0.7-13.8,8.6-4.1,11.4,5.3c10.3,43.9,5.1,69.3-16.9,87.8c-10.5,7.4-5.4,16.6,6.9,17.4
			c18.5-1.5,30.8-14.3,33.4-33.6c0.1-19.4-1.9-58.7-3.2-79.6c1.3-12.5,9-9.2,18.4,4.3c4.7,8.4,7,19.8-0.6,37.4
			c-3.5,13.6,9.8,14,16.3,7.7c3.7-3.5,6.6-14.9,5.8-26.7c-1.1-15.6-6.3-21.6-15.2-38.5c-2.6-10,7.1-13.8,13.7-7.2
			c9.8,16.2,9.3,21.3,8.2,33.1c-0.3,12.2,12.3,3.6,13.4-2.4c3.2-17.4-2.2-30.3-7.1-42.1c-3.6-8.5,6.6-12.8,13.1,0.4
			c15.6,31.5,11.7,53.9-6.6,81.6c-1.9,2.8-1.3,6.7,1.7,7.5c6.3,0.2,12.4,0.1,18.7,0.3c0,0-19.1,32.3-29.1,50.8l-32.9,6.3
			c-3.6-6.1-17.8-3.6-19.3,7.6c-10.3,3.7-12.7,9-10.6,16.6c3.5-7.1,7.5-8.6,12.3-8.1c7.4,4.3,18.7,0.2,21-8.5l25.2-4.2l-25.5,24.1
			c-8.5-5-20.9,7.3-18.2,16.7c-4.5,4.5-4.9,9.9-0.6,17.3c1.2-8.5,3.8-10.1,7-11.9c8.1,2.2,17.8-8,15.7-15.7l24.5-23.1l-5.9,21.9
			c-12.7,3.3-16,20.7-6.7,26.2c-0.6,6.2,3,10.7,10.9,14.2c-2.8-5.1-4.3-11-3-16.6c9.3-5.3,14-14.6,6.6-22l8.4-30.3l26.7-11.6
			c5.1,5.1,16.6,1.4,20.5-7.9c5.1-4,9.9-0.6,13.8,1.8c-2-7.1-6.3-12.2-16.1-10.4c-5.9-5.9-17-2.1-19.7,7.4l-22,10.5
			c9.8-19.3,31.8-50.9,31.8-50.9c7.1-0.2,12.6-0.5,19.4-1c3.1-0.7,5.8-3.5,4.9-10.4c-4.4-22.6-20.4-55.7-10.6-72.3
			c3.6-6.1,12.7-8.6,22.3,3.4c14.6,18.3,16.2,44,11.3,69.4c-2.8,14-8.8,15.1-15.7,21.3c-7.5,9.4-5.5,15.8,7.2,14.7
			c9.8-3,16.1-8.4,19.9-14c3.3-4.8,2.7-14.9,3.2-21.1c-0.7-8.3,10.9-9.3,11.9,0.3c1.7,17.3,0.1,31.3-9.7,40.8
			c-8.7,11.6-1,15.5,8.5,11.6c17.2-7,18.6-27.4,17.8-39.2c-0.5-9,2.4-12.3,9-4.1c9.2,17.6,8.6,28.6-0.2,38.7
			c-8.3,7-2.4,13.1,7.3,11.6c21.8-3.8,15.7-28.4,10.7-42c-5.4-11.5,3.4-12.2,10.8-5.8c9.3,9.2,12.3,25.4,11.6,35.6
			c-0.7,10.2,58.5,11.3,58.5,11.3S548.6,491.4,538.4,492.1L538.4,492.1z M235.8,111.8c-4.5,4.5-5.7,8.9-3.8,10.8
			c2,2,6.3,0.7,10.9-3.8c4.5-4.5,5.6-9.1,3.7-11C244.6,105.9,240.3,107.3,235.8,111.8L235.8,111.8z M110.8,236.7
			c4.5-4.5,8.9-5.7,10.8-3.8c2,2,0.7,6.3-3.8,10.9c-4.5,4.5-9.1,5.6-11,3.7C104.9,245.5,106.4,241.2,110.8,236.7L110.8,236.7z"/>
	</g>
</g>
</svg>
